<svg height="758.57" viewBox="0 0 1084.15 758.57" width="1084.15" xmlns="http://www.w3.org/2000/svg"><path d="m519.15 99.87c-44.07-16.76-90.64-30.76-138.18-29-69.9 2.58-137 41.91-169.86 99.66-27.88 48.93-31.32 106.28-43.33 160.58-14.78 66.89-43.14 130.48-73.42 192.65-16.26 33.4-33.42 67.52-36.09 104.13-3.7 50.83 22.27 101.48 63 135.29s94.82 51.65 149.11 55.54c28.89 2.07 59.08.15 84.74-12.43 27.15-13.31 46.94-37.36 74.2-50.48 25.26-12.16 54.81-13.86 83.17-12.28a394.64 394.64 0 0 1 108.58 21.6c39.64 13.92 76.5 34.09 116 48.21s83.74 22 124.16 10.22c38-11.07 68-37.95 95.05-65.17a1155.18 1155.18 0 0 0 121.22-143.39c24.41-34.21 47.13-70.3 57.92-110.17 20.64-76.23-7.76-162.23-70.75-214.29-52.19-43.13-122.23-61.85-190.79-73.21-62.52-10.36-134.81-11-192.36-38-54.88-25.78-104.82-57.56-162.37-79.46z" fill="#428bca" opacity=".1" transform="translate(-57.92 -70.71)"/><g fill="#aaabb0"><path d="m632.58 619v36.33h10.33l-2-39z"/><path d="m477.41 611.67v36.33h10.34l-2-39z"/><rect height="64.67" rx="6.67" width="13.33" x="644.58" y="551.67"/><rect height="79" rx="6.67" width="13.33" x="473.58" y="537.33"/><path d="m732.84 235.38s13.33-5.67 15.33 0 3 54.67 3 54.67h-12.67z" transform="translate(-57.92 -70.71)"/><path d="m586.84 235.38s-13.34-5.67-15.34 0-3 54.67-3 54.67h12.67z" transform="translate(-57.92 -70.71)"/><path d="m530.91 116-2 40.67h9v-41.67z"/></g><path d="m581.17 290.05 2.67-58.67s-1-13 30.66-9 124.34 12 124.34 12v55.67z" fill="#33323d" transform="translate(-57.92 -70.71)"/><path d="m707.84 599.05-5 89.66s-73.34 40.67-162.34 2l8-94.33z" fill="#33323d" transform="translate(-57.92 -70.71)"/><path d="m580.25 175.33 1.66 58h103.34l-6-76.66z" fill="#444053"/><path d="m493.41 490h97.34v123.33h-97.34z" fill="#4c4981"/><path d="m612.84 611.05s14-11 16.33-7.67-8.32 17.67-12.66 16-3.67-8.33-3.67-8.33z" fill="#ffb9b9" transform="translate(-57.92 -70.71)"/><path d="m304.51 216h638.97v320h-638.97z" fill="#504f60"/><g transform="translate(-57.92 -70.71)"><path d="m581.5 184.38s-5-46.67 0-52.33 89-59.34 166.67 3.66c0 0 7.33.34 6 17a200 200 0 0 0 .16 31.67s-167.16 12-172.83 0z" fill="#33323d"/><path d="m581.5 184.38s-5-46.67 0-52.33 89-59.34 166.67 3.66c0 0 7.33.34 6 17a200 200 0 0 0 .16 31.67s-167.16 12-172.83 0z" opacity=".1"/><path d="m581.5 190.38s-5-46.67 0-52.33 89-59.34 166.67 3.66c0 0 7.33.34 6 17a200 200 0 0 0 .16 31.67s-167.16 12-172.83 0z" fill="#33323d"/><path d="m757.17 169.05s5.33 20 3.67 23.33-1.36 12.67-1.36 12.67.36 6-2.31 6.66-5 1-2.84 3 0 5 0 5-1.17 4.67 0 7.67-6.84 4.25-6.16 8 2.92 14.33 0 14.67 1 13.33-1.63 13.33-4.5 23.33-4.5 23.33-18.5-15.66-30.83-11.33c0 0 1-13 5-17.67s2.79-16.66 2.79-16.66l19.84-59.67z" fill="#4c4981"/><path d="m658.17 444.83c-4.33 4.79-9-20.79-9-20.79s-12.33 17-20.33 5.67c-5.54-7.85-1.17-30.09 2-43 1.42-5.74 2.62-9.64 2.62-9.64l18-3s.06 3.92.46 8.68c.54 6.43 1.71 14.41 4.2 16.32 4.39 3.31 6.39 40.93 2.05 45.76z" fill="#ae6e79"/><path d="m648.84 145.38s-31.34-.33-39 16.33-8 22.34-11 25 32.66 16.67 32.66 16.67l1.67 57.33s7-7.09 18.33-3.88 25.67 0 25.67 0-.67-1.21 8.67 0 39-14.45 39-14.45.49-25.08-.17-30.42 21.16-44.58 21.16-44.58 17-16.33-.66-22c0 0-6.25-9.42-22.33-9.33s-74 9.33-74 9.33z" opacity=".1"/><path d="m648.84 144.38s-31.34-.33-39 16.33-8 22.34-11 25 32.66 16.67 32.66 16.67l1.67 57.33s7-7.09 18.33-3.88 25.67 0 25.67 0-.67-1.21 8.67 0 39-14.45 39-14.45 11.66-19 11-24.33 23.33-45.67 23.33-45.67 3.67-21.33-14-27c0 0-6.25-9.42-22.33-9.33s-74 9.33-74 9.33z" fill="#4c4981"/><path d="m652 382.72c-6.87-2.14-17.65 2.58-21.08 4 1.42-5.74 2.62-9.64 2.62-9.64l18-3s.03 3.92.46 8.64z" opacity=".1"/><path d="m608.5 185.71h-9.66s-2 20.34 0 26.34 3 5.13 2.33 9.57 4.67 11.24 4.67 11.24.66 16.76 4 23-3.67 34.22-3.67 34.22a40.26 40.26 0 0 0 8.33 13c5.67 5.66 8.67 26.66 7 34.66s4.67 11 4.67 11 2.67 37.34 3.67 37.34 20.33-10 26.33-1.34l-4.67-34.33.34-66.33s-6.34-8.34-3-15.67-2.67-24.67-2.67-24.67l-8.67-38.66z" fill="#4c4981"/><path d="m548.5 712.71s-14-3-14.33 0-16.67 33.67 3.67 42.67 74.66 28.33 163 3.33c0 0 5.66 2 4.33-10.33s-1.33-26-1.33-26-13.34-3.67-23.34-2.33-97 19-132-7.34z" fill="#33323d"/><path d="m548.5 712.71s-14-3-14.33 0-16.67 33.67 3.67 42.67 74.66 28.33 163 3.33c0 0 5.66 2 4.33-10.33s-1.33-26-1.33-26-13.34-3.67-23.34-2.33-97 19-132-7.34z" opacity=".1"/><path d="m548.5 708.71s-14-3-14.33 0-16.67 33.67 3.67 42.67 74.66 28.33 163 3.33c0 0 5.66 2 4.33-10.33s-1.33-26-1.33-26-13.34-3.67-23.34-2.33-97 19-132-7.34z" fill="#33323d"/><path d="m630.14 197.69c-.86 4.89-2.81 9.59-3.11 14.54s1.61 10.58 6.18 12.52a20.83 20.83 0 0 1 3.69 1.5c1.76 1.19 2.48 3.43 2.85 5.53a30.2 30.2 0 0 1 .35 8.22c-.25 2.76-.84 5.73.52 8.14 2.39 4.27 8.62 3.64 13.36 2.44l-1.63 12.63c-.13 1-.21 2.13.52 2.81a3.15 3.15 0 0 0 2.4.52c4.12-.26 8.36-.83 11.89-3s6.16-6.21 5.49-10.28c-.78-4.72-5.66-8.47-5-13.21.51-3.67 4.1-6 6.46-8.82 4.27-5.16 4.5-13 1.15-18.84s-9.82-9.46-16.48-10.12c-3.69-.37-7.53.08-11-1.2a8.34 8.34 0 0 1 -5.1-5.38" fill="#444053"/><path d="m513.84 642.38 3.49-7.6s18.84-17.55 23.17-18.78 22-6.59 24.67-6.59 51.34-2.67 51.34-2.67l5.66 13.34-61.08 13.41-20.59 15z" fill="#767d9f"/><path d="m660.59 437.71-3.19 24.55-1.23 9.45-14.33 2s-1.55-3.32-3.74-8.42c-6.65-15.48-19.17-47.4-11.91-52.91 9.65-7.34 12 17 12 17l11-5.34z" fill="#ffb9b9"/></g><path d="m527.91 412.67h72.37v109.33h-72.37z" fill="#fff"/><path d="m527.91 412.67h72.37v109.33h-72.37z" opacity=".1"/><path d="m610.8 483.38h72.37v109.33h-72.37z" fill="#fff" transform="matrix(.98924682 .14625569 -.14625569 .98924682 27.68 -159.51)"/><path d="m621.61 491.41h37.25v56.27h-37.25z" fill="#428bca" transform="matrix(.98924682 .14625569 -.14625569 .98924682 24.9 -158.72)"/><path d="m612.61 563.73h45.13v12.22h-45.13z" fill="#428bca" transform="matrix(.98924682 .14625569 -.14625569 .98924682 32.2 -157.44)"/><circle cx="619.25" cy="95" opacity=".1" r="41.83"/><circle cx="619.25" cy="94" fill="#ae6e79" r="41.83"/><path d="m642.68 195.71a4.76 4.76 0 0 1 .29-3.23c1.59-3.31 6.12-3.6 9.79-3.43 8.63.4 18.1.45 24.85-5 2.8-2.24 5.93-7.87 10-6.8 3.62.95 5.13 5.86 8.9 6.95 2.73.79 5.56-.47 8.34-1 4-.79 8.1-.13 12.16-.1s8.47-.74 11.24-3.71c3.74-4 3.13-10.25 2.8-15.73a84.69 84.69 0 0 1 1.43-21.14c1.36-6.92 3.45-14.66-.37-20.59-3.64-5.65-11.18-7.2-16.33-11.53-4.82-4-7.37-10.41-12.46-14.12-6.41-4.67-15.12-4-23-3.19l-17.1 1.82c-4.41.47-9 1-12.63 3.63-6.55 4.74-7.45 14.59-13.65 19.78-2.76 2.3-6.29 3.44-9.44 5.16s-6.19 4.44-6.55 8c-.3 3 1.32 5.77 2.11 8.66 1.87 6.9-1.05 14-2.92 20.95s-2.23 15.39 3.2 20c1.1.94 2.38 1.66 3.45 2.64 3.67 3.35 4.17 9 3.32 13.88" fill="#444053" transform="translate(-57.92 -70.71)"/><ellipse cx="622.66" cy="143.75" fill="#444053" rx="1" ry="2.5"/><ellipse cx="622.66" cy="154.17" fill="#444053" rx="1" ry="2.5"/><path d="m658.4 444.76c1.07-1.23 1.78-4.39 2.19-8.56l-11.92-14.86s5.05 28.81 9.73 23.42z" fill="#ae6e79" transform="translate(-57.92 -70.71)"/><path d="m671.84 690.38s-19.56 30.24-80.67 27c-57.57-3-85.67-31.33-84.33-41.33s-3.67-34.34 8.66-41.34c7.15-4.05 16.56-1.65 23.2 1.09a13.1 13.1 0 0 0 13.77-2.47c6.07-5.47 17.39-11.63 35.26-6.78a12.7 12.7 0 0 0 7-.13c7.44-2.27 25.15-6.21 38 2.54a13 13 0 0 0 13.92.53l.18-.11c6-3.67 34 31 34 31s1.34 26.67-8.99 30z" opacity=".1" transform="translate(-57.92 -70.71)"/><path d="m671.84 691.38s-19.56 30.24-80.67 27c-57.57-3-85.67-31.33-84.33-41.33s-3.67-34.34 8.66-41.34c7.15-4.05 16.56-1.65 23.2 1.09a13.1 13.1 0 0 0 13.77-2.47c6.07-5.47 17.39-11.63 35.26-6.78a12.7 12.7 0 0 0 7-.13c7.44-2.27 25.15-6.21 38 2.54a13 13 0 0 0 13.92.53l.18-.11c6-3.67 34 31 34 31s1.34 26.67-8.99 30z" fill="#767d9f" transform="translate(-57.92 -70.71)"/><circle cx="533.25" cy="592.67" opacity=".1" r="39.84"/><circle cx="533.25" cy="593.67" fill="#ffb9b9" r="39.84"/><g transform="translate(-57.92 -70.71)"><path d="m579.75 629.94c-4.18 1.13-8.3 3.29-10.34 6.84-1.23 2.14-1.66 4.71-3.44 6.49-2.52 2.53-6.77 2.58-10.18 4s-5.66 6.42-2.32 8c-3.48.18-6.06 3.39-6.49 6.58s.78 6.37 1.95 9.41c3.82 9.84 7.93 20.11 16.35 27.11 13.72 11.42 34.4 10.89 52.83 9.68a8.64 8.64 0 0 0 4.33-1c2-1.32 2.25-3.85 2.58-6.07 1.39-9.48 6.53-18.09 9.89-27.14s4.74-19.68-.92-27.69c-8.33-11.88-40.22-20.01-54.24-16.21z" fill="#b96b6b"/><path d="m657.4 462.26-1.23 9.45-14.33 2s-1.55-3.32-3.74-8.42l19.07-3.58z" opacity=".1"/><path d="m672.5 671.05 8.34-9.67-1.67-53.33a86.51 86.51 0 0 0 1.67-11.67c.33-5.67-4.17-18.33-4.17-18.33a39.71 39.71 0 0 1 2.83-7.34c2-4-2.82-13-2.82-13s-7.18-23.33-4.18-35-.73-18.33-.73-18.33-2.93-13-2.6-18.33-6.67-10.34-6.67-10.34l-5.33-13-21.33 4v45s1.33 43 0 51.34 2.66 16.33 2.66 16.33-2.33 12.33-.33 17 6 16 6 16a26 26 0 0 0 .67 12.16c2 5.84 0 9.17 0 9.17z" fill="#767d9f"/><g opacity=".1"><path d="m732.51 139.23a84.66 84.66 0 0 0 -1.51 17.77 85.07 85.07 0 0 1 1.55-14.76c.88-4.44 2-9.22 1.76-13.65a83 83 0 0 1 -1.8 10.64z"/><path d="m626.82 180.51c-1.07-1-2.35-1.7-3.45-2.65-2.92-2.49-4.15-6.1-4.39-10-.29 5 .73 9.84 4.39 13 1.1.95 2.38 1.67 3.45 2.65a12.22 12.22 0 0 1 3.62 8.35c.29-4.2-.56-8.57-3.62-11.35z"/><path d="m623.63 143.17a18.85 18.85 0 0 0 -.54-6.29c-.58-2.14-1.62-4.23-2-6.38 0 .23-.08.47-.11.72-.29 3 1.33 5.77 2.11 8.66a17 17 0 0 1 .54 3.29z"/><path d="m728.28 176.1c-2.77 3-7.18 3.74-11.24 3.71s-8.17-.69-12.16.11c-2.78.56-5.61 1.81-8.34 1-3.77-1.09-5.28-6-8.89-6.95-4.11-1.08-7.24 4.55-10 6.79-6.75 5.4-16.22 5.35-24.85 5-3.67-.17-8.2.12-9.78 3.44a4.64 4.64 0 0 0 -.29 3.23l-12.22 1.92a23.71 23.71 0 0 1 -.33 3l12.55-2a4.64 4.64 0 0 1 .29-3.23c1.58-3.32 6.11-3.61 9.78-3.44 8.63.4 18.1.45 24.85-5 2.8-2.24 5.93-7.87 10-6.79 3.61.94 5.12 5.86 8.89 6.95 2.73.78 5.56-.47 8.34-1 4-.8 8.1-.14 12.16-.11s8.47-.74 11.24-3.71 3.17-7.4 3-11.72c-.12 3.35-.81 6.45-3 8.8z"/></g><g opacity=".1"><path d="m635.71 224.13a20.23 20.23 0 0 0 -3.69-1.5 9.55 9.55 0 0 1 -4.83-4.94c.75 3.45 2.65 6.59 5.83 7.94a20.23 20.23 0 0 1 3.69 1.5 5.54 5.54 0 0 1 1.77 2.07c-.4-1.96-1.13-3.96-2.77-5.07z"/><path d="m652.79 248.46c-4.61 1.17-10.63 1.78-13.16-2.13a6.87 6.87 0 0 0 .8 2.69c2.16 3.85 7.44 3.72 11.93 2.77z"/><path d="m671.47 251.2c.64 4.06-2 8.11-5.5 10.24s-7.77 2.72-11.89 3a4.08 4.08 0 0 1 -1.94-.22 2.38 2.38 0 0 0 2.94 3.22c4.12-.26 8.36-.83 11.89-3s6.17-6.21 5.49-10.28a11.34 11.34 0 0 0 -.99-2.96z"/><path d="m675.91 215a16.46 16.46 0 0 1 -3 14.15c-2.36 2.86-5.95 5.15-6.46 8.82a8.33 8.33 0 0 0 1 4.87 6.5 6.5 0 0 1 0-1.87c.51-3.67 4.1-6 6.46-8.82 3.88-4.69 4.42-11.6 2-17.15z"/></g><g opacity=".1"><path d="m555.8 648.81c3.4-1.41 7.65-1.46 10.18-4 1.78-1.78 2.21-4.35 3.44-6.48 2-3.56 6.15-5.71 10.33-6.84 14-3.8 45.92 4.32 54.24 16.09a21.85 21.85 0 0 1 3.82 12.08 22.58 22.58 0 0 0 -3.81-14.07c-8.32-11.77-40.21-19.89-54.24-16.09-4.18 1.13-8.3 3.28-10.33 6.84-1.23 2.13-1.66 4.7-3.44 6.48-2.53 2.53-6.78 2.58-10.18 4-2.59 1.07-4.51 4.23-3.81 6.35a6.88 6.88 0 0 1 3.8-4.36z"/><path d="m547 663.34c.42-3.2 3-6.4 6.49-6.58a2.66 2.66 0 0 1 -1.53-1.71 7.77 7.77 0 0 0 -5 6.29 10.57 10.57 0 0 0 0 2.45c.04-.15.04-.3.04-.45z"/></g></g><path d="m609.91 230.24h91v118.67h-91z" fill="#fff"/><path d="m609.91 230.24h91v118.67h-91z" opacity=".1"/><path d="m713.34 314.71h91v118.67h-91z" fill="#fff" transform="matrix(.98552649 -.16952151 .16952151 .98552649 -110.37 63.4)"/><path d="m727.88 400.99h21.38v27.88h-21.38z" fill="#428bca" transform="matrix(.98552649 -.16952151 .16952151 .98552649 -117.59 60.56)"/><path d="m757.04 395.97h21.38v27.88h-21.38z" fill="#428bca" transform="matrix(.98552649 -.16952151 .16952151 .98552649 -116.32 65.43)"/><path d="m721.04 359h74.64v27.88h-74.64z" fill="#428bca" transform="matrix(.99 -.17 .17 .99 -110.19 63.31)"/><path d="m713.09 326.36h74.64v6.22h-74.64z" fill="#428bca" transform="matrix(.99 -.17 .17 .99 -102.93 61.33)"/><path d="m715.5 337.64h74.64v6.22h-74.64z" fill="#428bca" transform="matrix(.99 -.17 .17 .99 -104.81 61.9)"/><path d="m719 268.71s-41.83 42-20.83 52.67 34.67-35.5 34.67-35.5l3.32-10.5z" fill="#ae6e79" transform="translate(-57.92 -70.71)"/><path d="m715.34 265-5.17 11.42s25.5 3.58 30.83 11.29l-3.16-20.15-3.75-8.6z" opacity=".1" transform="translate(-57.92 -70.71)"/><path d="m716.34 264-5.17 11.42s25.5 3.58 30.83 11.29l-3.16-20.15-3.75-8.6z" fill="#4c4981" transform="translate(-57.92 -70.71)"/><path d="m812.78 403.26-.55.38.76.34.82-.07.1-.57z" fill="#464a5f"/><path d="m812.78 403.26-.55.38.76.34.82-.07.1-.57z" opacity=".1"/><path d="m812.78 403.26-.56.36-.44-.54.27-.44.25-.08z" fill="#9c9ca1"/><path d="m812.78 403.26-.56.36-.44-.54.27-.44.25-.08z" opacity=".1"/><g transform="translate(-57.92 -70.71)"><path d="m969.13 404.86-40.94-59.13a4.87 4.87 0 0 0 -6.78-1.25l-91.26 62.64a4.89 4.89 0 0 0 -1.27 6.79l40.83 59.88z" fill="#9c9ca1"/><path d="m969.13 404.86-40.94-59.13a4.87 4.87 0 0 0 -6.78-1.25l-91.26 62.64a4.89 4.89 0 0 0 -1.27 6.79l40.83 59.88z" opacity=".1"/><path d="m970.13 405-40.94-59.13a4.88 4.88 0 0 0 -6.79-1.25l-91.25 62.68a4.9 4.9 0 0 0 -1.28 6.79l40.83 59.91z" fill="#9c9ca1"/><path d="m1004.35 416.69-34-10.92-99.44 68.93 34.54 11.3a5.23 5.23 0 0 0 4.63-.7l94.55-66.76a1 1 0 0 0 -.28-1.85z" fill="#464a5f"/><path d="m1004.35 416.69-34-10.92-99.44 68.93 34.54 11.3a5.23 5.23 0 0 0 4.63-.7l94.55-66.76a1 1 0 0 0 -.28-1.85z" opacity=".1"/><path d="m1004.14 416-34-10.93-99.44 68.93 34.54 11.28a5.19 5.19 0 0 0 4.63-.69l94.55-66.76a1 1 0 0 0 -.28-1.83z" fill="#464a5f"/><g opacity=".1"><path d="m954.07 402.36-2.51-3.6a1 1 0 0 0 -1.36-.25l-3.73 2.49a1 1 0 0 0 -.27 1.35l2.31 3.55a1 1 0 0 0 1.35.29l3.93-2.47a1 1 0 0 0 .28-1.36z"/><path d="m947.37 407-2.52-3.59a1 1 0 0 0 -1.36-.25l-3.72 2.51a1 1 0 0 0 -.28 1.35l2.31 3.55a1 1 0 0 0 1.35.3l3.94-2.47a1 1 0 0 0 .28-1.4z"/><path d="m940.33 411.87-2.52-3.59a1 1 0 0 0 -1.36-.25l-3.73 2.51a1 1 0 0 0 -.27 1.36l2.31 3.55a1 1 0 0 0 1.35.29l3.93-2.47a1 1 0 0 0 .29-1.4z"/><path d="m933.2 416.81-2.52-3.6a1 1 0 0 0 -1.35-.25l-3.73 2.52a1 1 0 0 0 -.27 1.35l2.31 3.55a1 1 0 0 0 1.34.3l3.94-2.48a1 1 0 0 0 .28-1.39z"/><path d="m926.08 421.74-2.52-3.59a1 1 0 0 0 -1.36-.25l-3.72 2.51a1 1 0 0 0 -.28 1.35l2.31 3.55a1 1 0 0 0 1.35.3l3.94-2.48a1 1 0 0 0 .28-1.39z"/><path d="m919.27 427.12-3.13-4.46a.45.45 0 0 0 -.63-.12l-4.58 3.09a.45.45 0 0 0 -.13.63l2.87 4.41a.46.46 0 0 0 .63.14l4.84-3a.46.46 0 0 0 .13-.69z"/><path d="m912.15 432.05-3.15-4.46a.46.46 0 0 0 -.64-.12l-4.58 3.09a.46.46 0 0 0 -.12.63l2.87 4.41a.44.44 0 0 0 .63.14l4.83-3a.45.45 0 0 0 .16-.69z"/><path d="m905.84 436.42-3.13-4.42a.46.46 0 0 0 -.63-.11l-4.58 3.08a.47.47 0 0 0 -.13.64l2.87 4.41a.47.47 0 0 0 .63.14l4.84-3a.46.46 0 0 0 .13-.74z"/><path d="m898.78 441.3-3.13-4.46a.46.46 0 0 0 -.63-.11l-4.58 3.08a.46.46 0 0 0 -.13.64l2.87 4.41a.47.47 0 0 0 .63.14l4.84-3a.47.47 0 0 0 .13-.7z"/><path d="m891.94 446-3.13-4.46a.45.45 0 0 0 -.63-.12l-4.58 3.09a.45.45 0 0 0 -.13.63l2.87 4.41a.46.46 0 0 0 .63.14l4.84-3a.46.46 0 0 0 .13-.69z"/><path d="m885.1 450.78-3.1-4.47a.46.46 0 0 0 -.63-.11l-4.58 3.08a.46.46 0 0 0 -.13.64l2.87 4.41a.47.47 0 0 0 .63.14l4.84-3a.46.46 0 0 0 .1-.69z"/><path d="m878.26 455.51-3.13-4.46a.45.45 0 0 0 -.63-.12l-4.58 3.07a.45.45 0 0 0 -.13.63l2.87 4.41a.46.46 0 0 0 .63.14l4.84-3a.46.46 0 0 0 .13-.67z"/><path d="m949.57 395.85-2.52-3.6a1 1 0 0 0 -1.36-.25l-3.69 2.52a1 1 0 0 0 -.28 1.35l2.31 3.55a1 1 0 0 0 1.35.29l3.94-2.47a1 1 0 0 0 .25-1.39z"/><path d="m939.72 381.62-2.52-3.62a1 1 0 0 0 -1.35-.25l-3.73 2.51a1 1 0 0 0 -.28 1.35l2.31 3.55a1 1 0 0 0 1.35.3l3.94-2.47a1 1 0 0 0 .28-1.37z"/><path d="m942.86 400.49-2.52-3.59a1 1 0 0 0 -1.35-.25l-3.73 2.51a1 1 0 0 0 -.27 1.35l2.3 3.55a1 1 0 0 0 1.35.3l3.94-2.47a1 1 0 0 0 .28-1.4z"/><path d="m935.82 405.36-2.52-3.59a1 1 0 0 0 -1.36-.25l-3.72 2.48a1 1 0 0 0 -.28 1.36l2.31 3.55a1 1 0 0 0 1.35.29l3.94-2.47a1 1 0 0 0 .28-1.37z"/><path d="m928.69 410.3-2.51-3.6a1 1 0 0 0 -1.36-.25l-3.73 2.55a1 1 0 0 0 -.27 1.35l2.31 3.55a1 1 0 0 0 1.35.29l3.93-2.47a1 1 0 0 0 .28-1.42z"/><path d="m933.17 386.49-2.52-3.59a1 1 0 0 0 -1.35-.25l-3.73 2.51a1 1 0 0 0 -.28 1.35l2.31 3.55a1 1 0 0 0 1.35.3l3.94-2.47a1 1 0 0 0 .28-1.4z"/><path d="m926.13 391.37-2.52-3.6a1 1 0 0 0 -1.36-.25l-3.72 2.48a1 1 0 0 0 -.28 1.35l2.31 3.55a1 1 0 0 0 1.35.29l3.94-2.47a1 1 0 0 0 .28-1.35z"/><path d="m919 396.3-2.52-3.59a1 1 0 0 0 -1.35-.26l-3.73 2.55a1 1 0 0 0 -.27 1.35l2.31 3.55a1 1 0 0 0 1.35.3l3.93-2.48a1 1 0 0 0 .28-1.42z"/><path d="m921.57 415.23-2.52-3.59a1 1 0 0 0 -1.35-.26l-3.7 2.52a1 1 0 0 0 -.27 1.35l2.27 3.55a1 1 0 0 0 1.34.3l3.94-2.48a1 1 0 0 0 .29-1.39z"/><path d="m914.45 420.16-2.52-3.59a1 1 0 0 0 -1.36-.25l-3.72 2.51a1 1 0 0 0 -.28 1.35l2.31 3.55a1 1 0 0 0 1.35.3l3.94-2.47a1 1 0 0 0 .28-1.4z"/><path d="m907.64 425.54-3.13-4.46a.45.45 0 0 0 -.63-.12l-4.58 3.09a.45.45 0 0 0 -.13.63l2.87 4.41a.45.45 0 0 0 .63.14l4.84-3a.46.46 0 0 0 .13-.69z"/><path d="m901.33 429.91-3.13-4.47a.46.46 0 0 0 -.63-.11l-4.57 3.08a.47.47 0 0 0 -.13.64l2.87 4.41a.47.47 0 0 0 .63.14l4.84-3a.44.44 0 0 0 .12-.69z"/><path d="m894.27 434.79-3.13-4.46a.46.46 0 0 0 -.63-.11l-4.58 3.08a.45.45 0 0 0 -.13.63l2.87 4.42a.47.47 0 0 0 .63.14l4.84-3a.47.47 0 0 0 .13-.7z"/><path d="m887.43 439.53-3.13-4.46a.45.45 0 0 0 -.63-.12l-4.58 3.05a.45.45 0 0 0 -.13.63l2.87 4.41a.46.46 0 0 0 .63.14l4.84-3a.46.46 0 0 0 .13-.65z"/><path d="m931.13 398.59-2.52-3.59a1 1 0 0 0 -1.35-.25l-3.73 2.52a1 1 0 0 0 -.27 1.35l2.31 3.55a1 1 0 0 0 1.34.29l3.94-2.47a1 1 0 0 0 .28-1.4z"/><path d="m924 403.53-2.52-3.6a1 1 0 0 0 -1.36-.25l-3.72 2.52a1 1 0 0 0 -.28 1.35l2.31 3.55a1 1 0 0 0 1.35.3l3.94-2.48a1 1 0 0 0 .28-1.39z"/><path d="m916.89 408.46-2.52-3.59a1 1 0 0 0 -1.36-.25l-3.73 2.51a1 1 0 0 0 -.27 1.35l2.31 3.55a1 1 0 0 0 1.35.3l3.93-2.48a1 1 0 0 0 .29-1.39z"/><path d="m909.76 413.39-2.52-3.59a1 1 0 0 0 -1.35-.25l-3.73 2.51a1 1 0 0 0 -.27 1.35l2.31 3.59a1 1 0 0 0 1.34.3l3.94-2.47a1 1 0 0 0 .28-1.44z"/><path d="m903 418.77-3.13-4.46a.45.45 0 0 0 -.63-.12l-4.58 3.09a.46.46 0 0 0 -.13.63l2.87 4.42a.45.45 0 0 0 .63.13l4.84-3a.46.46 0 0 0 .13-.69z"/><path d="m896.65 423.14-3.13-4.47a.47.47 0 0 0 -.64-.11l-4.57 3.08a.47.47 0 0 0 -.13.64l2.87 4.41a.46.46 0 0 0 .63.14l4.84-3a.46.46 0 0 0 .13-.69z"/><path d="m889.59 428-3.13-4.47a.47.47 0 0 0 -.64-.11l-4.58 3.08a.48.48 0 0 0 -.13.64l2.88 4.41a.46.46 0 0 0 .63.14l4.83-3a.45.45 0 0 0 .14-.69z"/><path d="m882.75 432.76-3.13-4.46a.46.46 0 0 0 -.64-.12l-4.58 3.09a.46.46 0 0 0 -.12.63l2.87 4.41a.44.44 0 0 0 .63.14l4.83-3a.45.45 0 0 0 .14-.69z"/><path d="m880.59 444.26-3.13-4.46a.46.46 0 0 0 -.63-.11l-4.58 3.08a.45.45 0 0 0 -.13.63l2.87 4.42a.47.47 0 0 0 .63.14l4.84-3a.47.47 0 0 0 .13-.7z"/><path d="m873.75 449-3.13-4.46a.45.45 0 0 0 -.63-.12l-4.58 3.09a.45.45 0 0 0 -.13.63l2.87 4.41a.46.46 0 0 0 .63.14l4.84-3a.46.46 0 0 0 .13-.69z"/><path d="m884.49 420.66-3-4.2a.62.62 0 0 0 -.85-.15l-4.32 2.91a.61.61 0 0 0 -.17.85l2.7 4.15a.6.6 0 0 0 .84.19l4.57-2.87a.62.62 0 0 0 .23-.88z"/><path d="m877.65 425.4-2.95-4.2a.61.61 0 0 0 -.85-.16l-4.32 2.96a.6.6 0 0 0 -.17.84l2.7 4.16a.62.62 0 0 0 .84.19l4.57-2.87a.62.62 0 0 0 .18-.92z"/><path d="m870.81 430.14-2.95-4.21a.62.62 0 0 0 -.85-.15l-4.32 2.91a.61.61 0 0 0 -.17.85l2.7 4.15a.6.6 0 0 0 .84.19l4.57-2.87a.61.61 0 0 0 .18-.87z"/><path d="m864.06 435-3.13-4.47a.46.46 0 0 0 -.63-.11l-4.58 3.08a.47.47 0 0 0 -.13.64l2.87 4.41a.47.47 0 0 0 .63.14l4.84-3a.44.44 0 0 0 .13-.69z"/><path d="m945 388.85-2.71-3.85a1 1 0 0 0 -1.36-.24l-10.58 7.41a1 1 0 0 0 -.26 1.34l2.55 3.94a1 1 0 0 0 1.39.27l10.74-7.51a1 1 0 0 0 .23-1.36z"/><path d="m875.89 437.35-3.32-4.69a.45.45 0 0 0 -.64-.11l-11.42 8a.45.45 0 0 0 -.12.62l3.12 4.83a.46.46 0 0 0 .65.13l11.61-8.13a.47.47 0 0 0 .12-.65z"/><path d="m912.22 401.48-3.06-4.48a.46.46 0 0 0 -.63-.12l-25.36 17.12a.46.46 0 0 0 -.13.63l3.13 4.8a.46.46 0 0 0 .65.13l25.28-17.44a.46.46 0 0 0 .12-.64z"/></g><g fill="#464a5f"><path d="m954.74 402.48-2.52-3.6a1 1 0 0 0 -1.36-.25l-3.72 2.52a1 1 0 0 0 -.28 1.35l2.31 3.55a1 1 0 0 0 1.35.3l3.94-2.48a1 1 0 0 0 .28-1.39z"/><path d="m948 407.12-2.52-3.59a1 1 0 0 0 -1.35-.25l-3.73 2.51a1 1 0 0 0 -.28 1.35l2.31 3.55a1 1 0 0 0 1.35.3l3.94-2.47a1 1 0 0 0 .28-1.4z"/><path d="m941 412-2.52-3.59a1 1 0 0 0 -1.36-.25l-3.72 2.52a1 1 0 0 0 -.28 1.35l2.31 3.55a1 1 0 0 0 1.35.29l3.94-2.47a1 1 0 0 0 .28-1.4z"/><path d="m933.86 416.93-2.52-3.6a1 1 0 0 0 -1.35-.25l-3.73 2.52a1 1 0 0 0 -.26 1.4l2.31 3.55a1 1 0 0 0 1.35.3l3.93-2.48a1 1 0 0 0 .27-1.44z"/><path d="m926.74 421.86-2.52-3.59a1 1 0 0 0 -1.35-.25l-3.73 2.51a1 1 0 0 0 -.27 1.35l2.3 3.55a1 1 0 0 0 1.35.3l3.94-2.48a1 1 0 0 0 .28-1.39z"/><path d="m919.93 427.24-3.13-4.46a.45.45 0 0 0 -.63-.12l-4.58 3.09a.45.45 0 0 0 -.13.63l2.87 4.41a.46.46 0 0 0 .63.14l4.84-3a.46.46 0 0 0 .13-.69z"/><path d="m912.81 432.17-3.13-4.46a.46.46 0 0 0 -.64-.12l-4.57 3.09a.45.45 0 0 0 -.13.63l2.87 4.42a.45.45 0 0 0 .63.13l4.84-3a.47.47 0 0 0 .13-.69z"/><path d="m906.5 436.54-3.13-4.47a.46.46 0 0 0 -.63-.11l-4.58 3.04a.47.47 0 0 0 -.13.64l2.87 4.41a.47.47 0 0 0 .63.14l4.84-3a.46.46 0 0 0 .13-.65z"/><path d="m899.44 441.43-3.13-4.43a.46.46 0 0 0 -.63-.11l-4.58 3.08a.46.46 0 0 0 -.13.64l2.87 4.41a.47.47 0 0 0 .63.14l4.84-3a.46.46 0 0 0 .13-.73z"/><path d="m892.6 446.16-3.13-4.46a.45.45 0 0 0 -.63-.12l-4.58 3.09a.45.45 0 0 0 -.13.63l2.87 4.41a.45.45 0 0 0 .63.14l4.84-3a.46.46 0 0 0 .13-.69z"/><path d="m885.76 450.9-3.13-4.47a.46.46 0 0 0 -.63-.11l-4.58 3.08a.47.47 0 0 0 -.13.64l2.87 4.41a.47.47 0 0 0 .63.14l4.84-3a.46.46 0 0 0 .13-.69z"/><path d="m878.92 455.63-3.13-4.46a.45.45 0 0 0 -.63-.12l-4.58 3.09a.45.45 0 0 0 -.13.63l2.87 4.41a.45.45 0 0 0 .63.14l4.84-3a.46.46 0 0 0 .13-.69z"/><path d="m950.23 396-2.52-3.6a1 1 0 0 0 -1.35-.25l-3.73 2.52a1 1 0 0 0 -.27 1.35l2.3 3.55a1 1 0 0 0 1.35.3l3.94-2.48a1 1 0 0 0 .28-1.39z"/><path d="m940.38 381.74-2.52-3.59a1 1 0 0 0 -1.35-.25l-3.73 2.51a1 1 0 0 0 -.27 1.35l2.31 3.55a1 1 0 0 0 1.34.3l3.94-2.47a1 1 0 0 0 .28-1.4z"/><path d="m943.52 400.61-2.52-3.61a1 1 0 0 0 -1.35-.25l-3.73 2.51a1 1 0 0 0 -.27 1.35l2.31 3.55a1 1 0 0 0 1.34.3l3.94-2.47a1 1 0 0 0 .28-1.38z"/><path d="m936.48 405.48-2.48-3.59a1 1 0 0 0 -1.35-.25l-3.73 2.51a1 1 0 0 0 -.27 1.36l2.3 3.55a1 1 0 0 0 1.35.29l3.94-2.47a1 1 0 0 0 .24-1.4z"/><path d="m929.36 410.42-2.52-3.6a1 1 0 0 0 -1.36-.25l-3.72 2.52a1 1 0 0 0 -.28 1.35l2.31 3.55a1 1 0 0 0 1.35.3l3.94-2.48a1 1 0 0 0 .28-1.39z"/><path d="m933.83 386.61-2.52-3.61a1 1 0 0 0 -1.35-.25l-3.73 2.51a1 1 0 0 0 -.27 1.35l2.31 3.55a1 1 0 0 0 1.34.3l3.94-2.47a1 1 0 0 0 .28-1.38z"/><path d="m926.79 391.49-2.52-3.6a1 1 0 0 0 -1.35-.25l-3.73 2.52a1 1 0 0 0 -.28 1.35l2.31 3.55a1 1 0 0 0 1.35.3l3.94-2.48a1 1 0 0 0 .28-1.39z"/><path d="m919.67 396.42-2.52-3.59a1 1 0 0 0 -1.36-.25l-3.72 2.51a1 1 0 0 0 -.28 1.35l2.31 3.56a1 1 0 0 0 1.35.3l3.93-2.48a1 1 0 0 0 .29-1.4z"/><path d="m922.23 415.35-2.52-3.59a1 1 0 0 0 -1.35-.25l-3.73 2.49a1 1 0 0 0 -.27 1.35l2.31 3.55a1 1 0 0 0 1.34.3l3.94-2.48a1 1 0 0 0 .28-1.37z"/><path d="m915.11 420.28-2.52-3.59a1 1 0 0 0 -1.35-.25l-3.73 2.56a1 1 0 0 0 -.28 1.35l2.31 3.55a1 1 0 0 0 1.35.3l3.94-2.47a1 1 0 0 0 .28-1.45z"/><path d="m908.3 425.66-3.13-4.46a.45.45 0 0 0 -.63-.12l-4.54 3.09a.45.45 0 0 0 -.13.63l2.87 4.41a.45.45 0 0 0 .63.14l4.84-3a.47.47 0 0 0 .09-.69z"/><path d="m902 430-3.13-4.47a.47.47 0 0 0 -.64-.11l-4.58 3.08a.48.48 0 0 0 -.13.64l2.88 4.41a.46.46 0 0 0 .63.14l4.83-3a.45.45 0 0 0 .14-.69z"/><path d="m894.93 434.92-3.13-4.47a.46.46 0 0 0 -.63-.11l-4.58 3.08a.47.47 0 0 0 -.13.64l2.87 4.41a.47.47 0 0 0 .63.14l4.84-3a.44.44 0 0 0 .13-.69z"/><path d="m888.1 439.65-3.1-4.46a.45.45 0 0 0 -.63-.12l-4.58 3.09a.46.46 0 0 0 -.13.63l2.87 4.41a.46.46 0 0 0 .63.14l4.84-3a.45.45 0 0 0 .1-.69z"/><path d="m931.79 398.72-2.51-3.6a1 1 0 0 0 -1.36-.25l-3.73 2.52a1 1 0 0 0 -.27 1.35l2.31 3.55a1 1 0 0 0 1.35.29l3.93-2.47a1 1 0 0 0 .28-1.39z"/><path d="m924.67 403.65-2.52-3.59a1 1 0 0 0 -1.35-.26l-3.73 2.52a1 1 0 0 0 -.27 1.35l2.31 3.55a1 1 0 0 0 1.34.3l3.94-2.48a1 1 0 0 0 .28-1.39z"/><path d="m917.55 408.58-2.55-3.58a1 1 0 0 0 -1.36-.25l-3.64 2.5a1 1 0 0 0 -.28 1.35l2.31 3.55a1 1 0 0 0 1.35.3l3.94-2.47a1 1 0 0 0 .23-1.4z"/><path d="m910.42 413.51-2.52-3.59a1 1 0 0 0 -1.35-.25l-3.73 2.51a1 1 0 0 0 -.27 1.35l2.31 3.55a1 1 0 0 0 1.34.3l3.94-2.47a1 1 0 0 0 .28-1.4z"/><path d="m903.62 418.89-3.13-4.46a.46.46 0 0 0 -.64-.12l-4.58 3.09a.46.46 0 0 0 -.13.63l2.87 4.42a.46.46 0 0 0 .64.13l4.83-3a.46.46 0 0 0 .14-.69z"/><path d="m897.31 423.26-3.13-4.46a.45.45 0 0 0 -.63-.12l-4.55 3.08a.47.47 0 0 0 -.13.64l2.87 4.41a.47.47 0 0 0 .63.14l4.84-3a.46.46 0 0 0 .1-.69z"/><path d="m890.25 428.15-3.13-4.47a.47.47 0 0 0 -.64-.11l-4.57 3.08a.47.47 0 0 0 -.13.64l2.87 4.41a.46.46 0 0 0 .63.14l4.84-3a.46.46 0 0 0 .13-.69z"/><path d="m883.41 432.88-3.13-4.46a.46.46 0 0 0 -.64-.12l-4.57 3.09a.45.45 0 0 0 -.13.63l2.87 4.42a.45.45 0 0 0 .63.13l4.84-3a.47.47 0 0 0 .13-.69z"/><path d="m881.26 444.39-3.13-4.47a.47.47 0 0 0 -.64-.11l-4.58 3.08a.47.47 0 0 0 -.13.64l2.87 4.41a.47.47 0 0 0 .63.14l4.84-3a.45.45 0 0 0 .14-.69z"/><path d="m874.42 449.12-3.13-4.46a.46.46 0 0 0 -.64-.12l-4.58 3.09a.46.46 0 0 0 -.13.63l2.87 4.41a.46.46 0 0 0 .64.14l4.83-3a.45.45 0 0 0 .14-.69z"/><path d="m885.15 420.79-2.95-4.21a.62.62 0 0 0 -.85-.15l-4.35 2.91a.62.62 0 0 0 -.17.85l2.7 4.16a.62.62 0 0 0 .85.18l4.56-2.87a.61.61 0 0 0 .21-.87z"/><path d="m878.31 425.52-2.95-4.2a.61.61 0 0 0 -.85-.16l-4.32 2.92a.61.61 0 0 0 -.17.84l2.7 4.16a.63.63 0 0 0 .85.19l4.57-2.87a.63.63 0 0 0 .17-.88z"/><path d="m871.47 430.26-3-4.21a.61.61 0 0 0 -.84-.15l-4.33 2.91a.62.62 0 0 0 -.17.85l2.7 4.16a.62.62 0 0 0 .85.18l4.57-2.87a.61.61 0 0 0 .22-.87z"/><path d="m864.73 435.13-3.13-4.47a.47.47 0 0 0 -.64-.11l-4.58 3.08a.47.47 0 0 0 -.12.64l2.87 4.41a.46.46 0 0 0 .63.14l4.84-3a.46.46 0 0 0 .13-.69z"/><path d="m945.67 389-2.67-3.86a1 1 0 0 0 -1.36-.24l-10.64 7.41a1 1 0 0 0 -.26 1.34l2.56 3.94a1 1 0 0 0 1.39.27l10.73-7.51a1 1 0 0 0 .25-1.35z"/><path d="m876.55 437.47-3.32-4.69a.45.45 0 0 0 -.64-.11l-11.42 8a.46.46 0 0 0 -.12.63l3.13 4.82a.46.46 0 0 0 .65.13l11.61-8.13a.47.47 0 0 0 .11-.65z"/><path d="m912.88 401.6-3-4.45a.47.47 0 0 0 -.64-.13l-25.35 17.1a.45.45 0 0 0 -.13.63l3.12 4.8a.46.46 0 0 0 .65.13l25.28-17.44a.46.46 0 0 0 .07-.64z"/></g><path d="m913 386.32-13.48-19.59a2.5 2.5 0 0 0 -3.46-.66l-37.13 24.93a2.51 2.51 0 0 0 -.67 3.49l13.74 20.15a2.5 2.5 0 0 0 3.49.66l36.87-25.51a2.49 2.49 0 0 0 .64-3.47z" opacity=".1"/><path d="m913.62 386.44-13.48-19.59a2.51 2.51 0 0 0 -3.46-.66l-37.08 24.95a2.5 2.5 0 0 0 -.68 3.49l13.7 20.13a2.5 2.5 0 0 0 3.49.66l36.89-25.51a2.49 2.49 0 0 0 .62-3.47z" fill="#939498"/><path d="m997.21 418.1-28.6-9.54-91.73 63.72 28.39 9.25a5.2 5.2 0 0 0 4.59-.68l87.61-60.92a1 1 0 0 0 -.26-1.83z" fill="#428bca"/></g></svg>