<svg version="1" xmlns="http://www.w3.org/2000/svg" width="666.667" height="666.667" viewBox="0 0 500.000000 500.000000"><path d="M80.5 249.7v181.8l46.8.3 46.7.2.1-2.7V370l-.1-56.5 2.3-2.7c1.2-1.4 6-7.4 10.6-13.2 4.7-5.8 8.7-10.6 9.1-10.6.5 0 3.3 3.5 8.2 10.2.9 1.3 8.2 11.1 16.2 21.8 8 10.7 15.4 20.6 16.3 21.9 3.7 4.9 53.5 71.7 54.6 73.1.7.8 3.9 5.2 7.2 9.7l6 8.2 57.3.1c31.4 0 57.2-.2 57.2-.5s-5.4-7.7-12-16.3c-6.6-8.6-22-28.8-34.1-44.7-12.2-16-23.2-30.4-24.5-32-1.3-1.7-7.3-9.5-13.3-17.5-6.1-8-11.4-15-11.8-15.5-.5-.6-3.1-3.9-5.8-7.5-14.8-19.6-21-27.8-23.2-30.5-2.8-3.6-1.8-2.3-13.6-17.9-11-14.4-10.7-12.9-3.4-21.1 1.9-2.2 13.7-16.2 26.2-31 12.5-14.9 24.6-29.3 26.9-32 10.2-12 28.1-33.2 40.1-47.5 7.1-8.5 13.2-15.7 13.5-16 .3-.3 2.8-3.2 5.5-6.5 2.8-3.3 5.2-6.2 5.5-6.5.3-.3 2.8-3.2 5.5-6.5 2.8-3.3 6-7.1 7.3-8.5 6-6.5 10-6-49.7-6h-54l-10.5 13.2c-19.7 25-64.8 82.3-71 90.2-3.3 4.3-9.2 11.8-13.1 16.6-3.8 4.9-13.1 16.5-20.5 26-7.4 9.4-13.7 17.3-14.1 17.6-.4.2-.8-35.9-.8-80.3 0-44.5 0-81.4-.1-82.1 0-.9-10-1.2-46.8-1.2H80.4l.1 181.7z"/></svg>