<svg version="1" xmlns="http://www.w3.org/2000/svg" width="346.667" height="346.667" viewBox="0 0 260.000000 260.000000"><path d="M53 129.5V225l20.2-.2 20.3-.3.1-33.5c.1-18.4.2-33.8.3-34.1.3-1.4 16.4-12 17.1-11.3.4.5 6.7 10.6 14 22.4 7.3 11.8 14 22.6 14.9 24 .9 1.4 2 3.3 2.6 4.2.5 1 4.8 7.8 9.4 15.3l8.4 13.5h22.8c12.6 0 22.9-.1 22.9-.3 0-.1-15-24.1-33.3-53.2l-33.4-52.9 15.1-19.1c8.2-10.4 16.6-21.1 18.5-23.6 2-2.6 10-12.8 17.9-22.7 7.8-9.9 14.2-18.3 14.2-18.6 0-.3-10.1-.6-22.5-.6s-22.5.4-22.5.8c0 .5-.8 1.7-1.8 2.8-.9 1-3.3 3.9-5.2 6.4-1.9 2.5-3.7 4.7-4 5-.3.3-6.6 8.1-14 17.5-7.4 9.3-14.2 17.9-15.2 19-4.1 4.9-9.2 11.8-16.9 22.7-4.6 6.4-8.6 11.5-8.9 11.3-.3-.2-.5-19.5-.5-42.9V34H53v95.5z"/></svg>