<svg height="836.74873" viewBox="0 0 995.00139 836.74873" width="995.00139" xmlns="http://www.w3.org/2000/svg"><path d="m813.829 123.00305c-84.98535-.39046-161.36733 36.69195-213.829 95.76989-52.46166-59.078-128.84361-96.16033-213.829-95.76989-159.58527.73319-286.771 132.11044-283.61418 292.78585 3.06166 155.83356 129.46274 281.2111 284.94318 281.2111q9.04848 0 17.95993-.56082a3110.9144 3110.9144 0 0 1 389.08014 0q8.90871.558 17.95993.56082c155.48048 0 281.88149-125.37751 284.94318-281.211 3.15682-160.67545-124.02886-292.05274-283.61418-292.78595z" fill="#f2f2f2" transform="translate(-102.4993 -31.62564)"/><path d="m759.88065 39.083a22.98206 22.98206 0 0 0 -19.80994 13.851c-4.9535 11.97382 1.42449 26.03885 10.999 34.77028s21.87358 13.72225 33.04831 20.28234c15.00952 8.81128 28.4968 21.04282 36.00691 36.74386s8.30888 35.15009-.51891 50.14991c-8.1937 13.9224-23.09255 22.2549-37.30219 29.9397" fill="none" stroke="#3f3d56" stroke-miterlimit="10" transform="translate(-102.4993 -31.62564)"/><ellipse cx="670.0007" cy="8.5" fill="#57b894" rx="17.5" ry="8.5"/><ellipse cx="684.0007" cy="64.5" fill="#57b894" rx="17.5" ry="8.5"/><ellipse cx="652.0007" cy="73.5" fill="#57b894" rx="17.5" ry="8.5"/><ellipse cx="702.0007" cy="120.5" fill="#57b894" rx="17.5" ry="8.5"/><ellipse cx="737.0007" cy="120.5" fill="#57b894" rx="17.5" ry="8.5"/><path d="m852.36056 317.873a22.982 22.982 0 0 0 -23.90166 3.6047c-9.75859 8.52522-10.29541 23.95946-5.59844 36.03621s13.49695 22.01331 20.59236 32.856c9.53031 14.56357 16.177 31.51463 15.92735 48.91757s-8.17714 35.181-22.75119 44.69525c-13.52721 8.8309-30.577 9.67444-46.7215 10.24405" fill="none" stroke="#3f3d56" stroke-miterlimit="10" transform="translate(-102.4993 -31.62564)"/><ellipse cx="863.20203" cy="324.41495" fill="#57b894" rx="8.5" ry="17.5" transform="matrix(.44439426 -.89583131 .89583131 .44439426 86.47962 921.90457)"/><ellipse cx="850.85759" cy="380.80302" fill="#57b894" rx="8.5" ry="17.5" transform="matrix(.44439426 -.89583131 .89583131 .44439426 29.10678 942.17557)"/><ellipse cx="818.19144" cy="374.64489" fill="#57b894" rx="8.5" ry="17.5" transform="matrix(.44439426 -.89583131 .89583131 .44439426 16.47393 909.49071)"/><ellipse cx="842.09647" cy="438.96867" fill="#57b894" rx="8.5" ry="17.5" transform="matrix(.44439426 -.89583131 .89583131 .44439426 -27.86756 966.64426)"/><ellipse cx="873.45057" cy="454.52247" fill="#57b894" rx="8.5" ry="17.5" transform="matrix(.44439426 -.89583131 .89583131 .44439426 -24.38063 1003.37402)"/><path d="m400.50311 398.03475a22.982 22.982 0 0 1 23.543-5.47806c12.21732 4.31817 18.41669 18.46285 18.51229 31.42048s-4.41219 25.44182-7.00123 38.13852c-3.47752 17.05378-3.39352 35.26119 3.26612 51.34142s20.59278 29.67328 37.65037 33.132c15.83237 3.21032 31.98817-2.303 47.20155-7.73649" fill="none" stroke="#3f3d56" stroke-miterlimit="10" transform="translate(-102.4993 -31.62564)"/><ellipse cx="392.84443" cy="408.11838" fill="#57b894" rx="17.5" ry="8.5" transform="matrix(.66835669 -.74384093 .74384093 .66835669 -275.79024 395.93782)"/><ellipse cx="425.14252" cy="455.96013" fill="#57b894" rx="17.5" ry="8.5" transform="matrix(.66835669 -.74384093 .74384093 .66835669 -300.66544 435.82886)"/><ellipse cx="453.22451" cy="438.17244" fill="#57b894" rx="17.5" ry="8.5" transform="matrix(.66835669 -.74384093 .74384093 .66835669 -278.12103 450.81822)"/><ellipse cx="454.76719" cy="506.77725" fill="#57b894" rx="17.5" ry="8.5" transform="matrix(.66835669 -.74384093 .74384093 .66835669 -328.64047 474.71805)"/><ellipse cx="431.3747" cy="532.81168" fill="#57b894" rx="17.5" ry="8.5" transform="matrix(.66835669 -.74384093 .74384093 .66835669 -355.7639 465.95191)"/><path d="m802.98 282.5856-2.75 20.17-17 124.46-27.84 203.82-6.97 51.03a16.25533 16.25533 0 0 1 -16.11 14.06h-185.65a16.26025 16.26025 0 0 1 -16.11-14.02l-7.09-51.07-28.31-203.82-17.3-124.55-2.78-20.04a16.25518 16.25518 0 0 1 16.1-18.5h295.7a16.2658 16.2658 0 0 1 16.11 18.46z" fill="#adb5bd" transform="translate(-102.4993 -31.62564)"/><rect fill="#2f2e41" height="54" rx="16.26001" width="290" x="392.0007" y="178.5"/><path d="m784.5 235.6456v12.22a16.26023 16.26023 0 0 1 -16.26 16.26h-257.48a16.26023 16.26023 0 0 1 -16.26-16.26v-12.19a1526.99976 1526.99976 0 0 0 290-.03z" opacity=".1" transform="translate(-102.4993 -31.62564)"/><circle cx="459.5007" cy="343" fill="#2f2e41" r="44"/><circle cx="615.5007" cy="343" fill="#2f2e41" r="44"/><circle cx="457.5007" cy="343" fill="#fff" r="12"/><circle cx="475.5007" cy="320" fill="#fff" r="5"/><circle cx="615.5007" cy="343" fill="#fff" r="12"/><circle cx="633.5007" cy="320" fill="#fff" r="5"/><g transform="translate(-102.4993 -31.62564)"><path d="m802.05542 274.62564h.00195c-.00464-.01227-.01062-.02387-.01532-.03608a16.2567 16.2567 0 0 0 -1.64135-3.186l-.00171-.00268c-.19605-.29456-.40326-.57953-.61774-.86048-.07153-.094-.14526-.186-.21875-.27844a16.37183 16.37183 0 0 0 -2.07257-2.16065c-.16858-.14666-.33856-.29126-.51318-.431-.19611-.15643-.39338-.31012-.59681-.45758-.25433-.18487-.51678-.35864-.78216-.52887-.20935-.13391-.41937-.26538-.63532-.38983q-.50005-.28922-1.02166-.54406c-.166-.08039-.33429-.15522-.50342-.23011q-.49851-.22137-1.01489-.40863c-.13874-.05047-.2746-.10577-.41517-.15252q-.71457-.23841-1.45861-.41089c-.12146-.02808-.24573-.048-.36823-.07337q-.60846-.126-1.2337-.20569c-.15082-.01922-.30091-.03875-.45307-.05377-.53393-.05292-1.07306-.08923-1.62249-.08929l-.00122-.00006h-295.7a16.3036 16.3036 0 0 0 -16.10113 18.49572l.4696 3.38111 2.31153 16.66314.0028.00025 17.29857 124.54974h-.00137l22.70832 163.49011 12.69409 91.39765a16.25911 16.25911 0 0 0 16.10449 14.02228h8.81024a16.24007 16.24007 0 0 1 -.91473-3.52228l-8.55109-61.56775h209.38868l27.84-203.82h-265.53695l-17.02172-122.55628a1718.367 1718.367 0 0 0 299.55867-1.90369l2.75-20.17a16.13653 16.13653 0 0 0 -.92458-7.96z" opacity=".1"/><path d="m826.241 291.12564a1720.99323 1720.99323 0 0 1 -373.48194 0 16.259 16.259 0 0 1 -16.259-16.259v-21.482a16.259 16.259 0 0 1 16.259-16.259 1530.24921 1530.24921 0 0 0 373.48194 0 16.259 16.259 0 0 1 16.259 16.259v21.482a16.259 16.259 0 0 1 -16.259 16.259z" fill="#2f2e41"/><path d="m763.03436 623.62564h-249.9851a9.42768 9.42768 0 0 1 -9.31112-7.94974l-27.00709-170.14462a9.42769 9.42769 0 0 1 9.31113-10.90564h305.79973a9.42769 9.42769 0 0 1 9.2954 11.00151l-28.80756 170.14462a9.42769 9.42769 0 0 1 -9.29539 7.85387z" fill="#2f2e41"/><path d="m734.58885 502.34659a6.66219 6.66219 0 0 1 3.65312 11.12c-15.86094 16.90694-54.3184 52.159-99.242 52.159s-83.381-35.25209-99.242-52.159a6.66219 6.66219 0 0 1 3.65312-11.12 528.227 528.227 0 0 1 191.1777 0z" fill="#adb5bd"/><path d="m688.99819 512.88966a6.663 6.663 0 0 1 3.62123 11.33167c-10.741 10.47261-30.73195 26.26412-53.61942 26.26412s-42.87837-15.79151-53.61942-26.26412a6.663 6.663 0 0 1 3.62123-11.33167 305.15552 305.15552 0 0 1 99.99638 0z" fill="#fff"/></g><path d="m126.5007 665h691" fill="none" stroke="#3f3d56" stroke-miterlimit="10"/><path d="m286.15186 604.07028v28.13072l14.44548 16.72634s6.0823-2.28087 6.0823-17.48663l2.28087-22.04837z" fill="#a0616a" transform="translate(-102.4993 -31.62564)"/><path d="m300.59734 632.201s-23.56894-15.96606-24.32923-21.28808-34.213-29.65125-28.891-14.44548 22.04836 22.04836 22.04836 22.04836 12.92491 34.97327 24.32923 34.213 11.40437-15.2058 6.84264-20.5278z" fill="#a0616a" transform="translate(-102.4993 -31.62564)"/><path d="m211.783 771.64 2.281 13.685-12.165-3.041v-10.644z" fill="#3f3d56"/><path d="m312.00166 810.86873s-14.05972-8.32964-14.63274-4.545-6.65533 18.23015-9.69649 19.75073-6.84259 18.24692 0 17.48663c5.29967-.58885 24.73757-10.75521 33.23418-15.31008a4.64254 4.64254 0 0 0 1.99621-6.067 9.579 9.579 0 0 1 -1.01741-2.95218c0-1.5205-9.88375-8.3631-9.88375-8.3631z" fill="#2f2e41" transform="translate(-102.4993 -31.62564)"/><path d="m318.84426 656.53018s-55.50106 25.84981-50.179 45.61731 25.08952 103.39922 25.08952 103.39922 22.04837 5.322 23.56894 0-14.44548-88.19345-12.9249-91.23461 29.65118-22.80865 29.65118-22.80865l57.782-24.32923-24.32923-22.80865z" fill="#2f2e41" transform="translate(-102.4993 -31.62564)"/><path d="m174.529 776.202-6.843 17.487 12.165 5.322 7.603-13.686z" fill="#3f3d56"/><path d="m318.084 531.84288s6.8426 9.12347 1.52058 13.6852-1.52058 21.28807-1.52058 21.28807l6.8426 19.00721 27.37038-5.322v-31.17184l-1.52058-15.20577s-13.68519-12.9249-15.20577-22.80865-17.48663 20.52778-17.48663 20.52778z" fill="#a0616a" transform="translate(-102.4993 -31.62564)"/><path d="m318.084 531.84288s6.8426 9.12347 1.52058 13.6852-1.52058 21.28807-1.52058 21.28807l6.8426 19.00721 27.37038-5.322v-31.17184l-1.52058-15.20577s-13.68519-12.9249-15.20577-22.80865-17.48663 20.52778-17.48663 20.52778z" opacity=".1" transform="translate(-102.4993 -31.62564)"/><path d="m363.70128 650.44788s-35.73356 39.535-35.73356 41.05557-19.00721 32.6924-19.00721 32.6924l-37.25413 82.87144s14.44548 19.7675 20.52778 18.24692 49.41875-89.714 49.41875-89.714 7.60289-19.7675 28.13067-24.32923 36.49385-20.52779 28.891-38.77471-34.9733-22.04839-34.9733-22.04839z" fill="#2f2e41" transform="translate(-102.4993 -31.62564)"/><circle cx="215.58467" cy="481.21004" fill="#a0616a" r="24.32923"/><g transform="translate(-102.4993 -31.62564)"><path d="m318.84426 552.37067s3.04115 17.48663 6.08231 19.00721 5.322 6.8426 12.16461-.76029 12.9249-22.80865 12.9249-22.80865l23.569 28.891 2.28086 79.83028s-26.61009-6.84259-34.97327 0-26.61009 6.08231-26.61009 6.08231l3.80144-15.20577-3.04115-25.8498.76029-23.56894.76028-16.72635z" fill="#f2f2f2"/><g fill="#3f3d56"><path d="m321.52262 539.57351s-10.28124 5.19428-11.04153 8.23543-14.44548 9.12346-14.44548 9.12346-5.322 5.322-5.322 8.36317 18.2469 38.01443 18.2469 38.01443 3.80144 23.56894 2.28087 28.13067 3.04115 22.04836 3.04115 22.04836l-9.12346 10.644h8.36317s9.12346-4.56173 9.12346-6.8426-1.52058-18.24692-2.28086-25.08951-.76029-31.17183.76028-39.535.76029-30.41154.76029-35.73356-.36279-17.35885-.36279-17.35885z"/><path d="m345.07421 528.02893s3.4213.7728 13.305 3.814 25.08951 7.60289 30.41153 13.6852a94.24729 94.24729 0 0 1 9.88375 14.44548l-3.04115 54.74076s6.08231 11.40433 5.322 17.48664-6.8426 6.84259-2.28087 19.76749 13.68519 24.32923 5.322 25.84981-30.41153-3.80144-40.29528-.76029-21.28808-11.40432-21.28808-11.40432 15.20577 1.52057 12.9249-4.56174-27.37038-74.50826-22.04836-89.714 11.78456-43.34903 11.78456-43.34903z"/><path d="m294.515 561.49413-3.80144 3.04116s-10.644 38.01442-7.60289 41.81586 27.37039 12.16461 28.891 6.84259-17.48667-51.69961-17.48667-51.69961z"/></g><path d="m407.03772 588.10423s11.40432 32.6924 11.40432 41.81586-1.52058 62.34365-1.52058 62.34365-.76028 22.80865-16.72634 13.68519 0-15.20577 0-15.20577-.76029-60.06278-6.8426-68.42595-8.36317-20.52779-8.36317-20.52779z" fill="#a0616a"/><path d="m282.35042 824.55392s-11.40433-6.0823-13.6852-1.52057-14.44548 29.65125-12.9249 32.6924 9.88375 15.20577 19.7675 12.16461 10.644-19.00721 10.644-19.00721l.76029-18.24692z" fill="#2f2e41"/><path d="m313.31994 506.95891c1.6759.78886 3.664 1.2602 4.71714 2.784.78033 1.1291.8579 2.59638 1.42727 3.84522a5.43744 5.43744 0 0 0 6.99527 2.55818 6.03223 6.03223 0 0 1 2.45993-3.73583 3.583 3.583 0 0 1 4.25368.23352c1.56706 1.494 1.01244 4.09923 1.74363 6.1371a12.95311 12.95311 0 0 0 2.78617 3.82048c1.66408 1.92 2.9898 4.17181 4.99378 5.73377s5.043 2.23889 7.03394.66032c1.6741-1.32737 2.02109-3.77624 1.61458-5.87368s-1.41475-4.02891-1.98336-6.08833c-1.84761-6.69179 1.098-13.83608.18662-20.71818-1.16775-8.81839-8.66294-15.784-17.02889-18.807a19.922 19.922 0 0 0 -10.99393-1.16482c-3.82594.85429-7.09438 3.29007-10.75866 4.68315-3.91853 1.48974-8.17957 1.74987-12.28027 2.62079s-8.32062 2.55482-10.70025 6.00614c-1.65974 2.40721-2.23022 5.39673-3.60572 7.97693a14.311 14.311 0 0 1 -7.24878 6.49424l4.33481-.24707a12.777 12.777 0 0 1 -3.45385 5.04091 9.26945 9.26945 0 0 0 6.00092-.79323 6.52323 6.52323 0 0 1 -2.23734 4.67625c3.33564-.10048 6.85319-.25422 9.67172-2.041 1.38059-.87519 2.50644-2.09416 3.8056-3.08621 2.7692-2.11458 6.20478-3.11829 9.55388-4.07948 1.7586-.50471 3.87536-1.20653 5.46579-.0755 1.32444.94194 1.53355 2.6331 3.24632 3.43933z" fill="#2f2e41"/><path d="m387.27022 550.85009 11.40432 9.12347 15.20577 34.97326s-21.28807 16.72635-26.61009 14.44548-14.44548-42.57615-14.44548-42.57615z" fill="#3f3d56"/><path d="m273.91 586.17171-.19054 1.39753-1.17788 8.6235-1.929 14.12215-.48293 3.53574a1.12631 1.12631 0 0 1 -1.11622.97418h-12.8632a1.12662 1.12662 0 0 1 -1.11622-.97141l-.49125-3.53851-1.96152-14.12215-1.19868-8.62974-.19261-1.38852a1.12628 1.12628 0 0 1 1.11552-1.28182h20.48833a1.127 1.127 0 0 1 1.1162 1.27905z" fill="#adb5bd"/></g><rect fill="#2f2e41" height="3.74152" rx="1.12661" width="20.09334" x="150.03694" y="549.52551"/><path d="m275.52171 586.76342a119.24225 119.24225 0 0 1 -25.87758 0 1.12654 1.12654 0 0 1 -1.12655-1.12654v-1.48843a1.12655 1.12655 0 0 1 1.12655-1.12655 106.0267 106.0267 0 0 0 25.87758 0 1.12655 1.12655 0 0 1 1.12654 1.12655v1.48843a1.12654 1.12654 0 0 1 -1.12654 1.12654z" fill="#2f2e41" transform="translate(-102.4993 -31.62564)"/><path d="m271.14229 609.80147h-17.32081a.65322.65322 0 0 1 -.64515-.55081l-1.87125-11.78888a.65323.65323 0 0 1 .64515-.75562h21.18806a.65322.65322 0 0 1 .644.76227l-1.996 11.78887a.65322.65322 0 0 1 -.644.54417z" fill="#2f2e41" transform="translate(-102.4993 -31.62564)"/></svg>