<svg height="491.63114" viewBox="0 0 886.35125 491.63114" width="886.35125" xmlns="http://www.w3.org/2000/svg"><circle cx="232.39589" cy="103.24635" fill="#ff6584" r="50.76267"/><path d="m548.40633 463.86269h-249.02644a5.07941 5.07941 0 0 1 -.93059-.07373l117.77805-204.00852a8.24649 8.24649 0 0 1 14.35487 0l79.04385 136.90556 3.78685 6.55094z" fill="#3f3d56" transform="translate(-156.82437 -204.18443)"/><path d="m391.582 259.678h-85.024l41.738-60.626 3.004-4.367 1.502-2.183 3.787 6.55z" opacity=".2"/><path d="m687.06247 463.86269h-215.38741l41.73786-60.62578 3.0036-4.36731 54.38818-79.007c3.56567-5.17807 12.14357-5.50052 16.33577-.97665a9.82994 9.82994 0 0 1 .7832.97665z" fill="#3f3d56" transform="translate(-156.82437 -204.18443)"/><circle cx="593.46332" cy="210.81982" fill="#adb5bd" r="15.29649"/><path d="m594.938 256.894h-3.133l1.428-48.378z" fill="#3f3d56"/><path d="m593.509 217.685 3.364-4.654-3.41 5.806-.368-.645z" fill="#3f3d56"/><path d="m593.141 222.384-3.364-4.653 3.41 5.805.368-.645z" fill="#3f3d56"/><circle cx="733.78005" cy="210.81982" fill="#adb5bd" r="15.29649"/><path d="m735.254 256.894h-3.133l1.429-48.378z" fill="#3f3d56"/><path d="m733.826 217.685 3.364-4.654-3.41 5.806-.369-.645z" fill="#3f3d56"/><path d="m733.458 222.384-3.364-4.653 3.41 5.805.368-.645z" fill="#3f3d56"/><circle cx="637.77455" cy="188.84646" fill="#adb5bd" r="22.59164"/><path d="m639.952 256.894h-4.627l2.109-71.45z" fill="#3f3d56"/><path d="m637.843 198.985 4.967-6.872-5.035 8.574-.545-.953z" fill="#3f3d56"/><path d="m637.298 205.926-4.967-6.872 5.035 8.573.545-.952z" fill="#3f3d56"/><circle cx="692.86823" cy="188.84646" fill="#adb5bd" r="22.59164"/><path d="m695.046 256.894h-4.627l2.109-71.45z" fill="#3f3d56"/><path d="m692.936 198.985 4.968-6.872-5.036 8.574-.544-.953z" fill="#3f3d56"/><path d="m692.392 205.926-4.968-6.872 5.036 8.573.544-.952z" fill="#3f3d56"/><circle cx="549.96899" cy="188.84646" fill="#adb5bd" r="22.59164"/><path d="m552.146 256.894h-4.627l2.11-71.45z" fill="#3f3d56"/><path d="m550.037 198.985 4.967-6.872-5.035 8.574-.544-.953z" fill="#3f3d56"/><path d="m549.493 205.926-4.968-6.872 5.036 8.573.544-.952z" fill="#3f3d56"/><path d="m974.074 695.81557h-737.26581a70.734 70.734 0 1 1 0-141.468h735.63345a27.20538 27.20538 0 0 0 0-54.41076h-760.11829v-43.5286h760.11829a70.734 70.734 0 1 1 0 141.468h-735.63345a27.20538 27.20538 0 1 0 0 54.41076h737.26581z" fill="#e6e6e6" transform="translate(-156.82437 -204.18443)"/><g fill="#fff"><path d="m82.70435 272.8999h33.73467v2.17643h-33.73467z"/><path d="m178.46729 272.8999h33.73467v2.17643h-33.73467z"/><path d="m274.23022 272.8999h33.73467v2.17643h-33.73467z"/><path d="m369.99316 272.8999h33.73467v2.17643h-33.73467z"/><path d="m465.75609 272.8999h33.73467v2.17643h-33.73467z"/><path d="m561.51903 272.8999h33.73467v2.17643h-33.73467z"/><path d="m657.28196 272.8999h33.73467v2.17643h-33.73467z"/><path d="m753.04489 272.8999h33.73467v2.17643h-33.73467z"/><path d="m82.70435 370.83926h33.73467v2.17643h-33.73467z"/><path d="m178.46729 370.83926h33.73467v2.17643h-33.73467z"/><path d="m274.23022 370.83926h33.73467v2.17643h-33.73467z"/><path d="m369.99316 370.83926h33.73467v2.17643h-33.73467z"/><path d="m465.75609 370.83926h33.73467v2.17643h-33.73467z"/><path d="m561.51903 370.83926h33.73467v2.17643h-33.73467z"/><path d="m657.28196 370.83926h33.73467v2.17643h-33.73467z"/><path d="m753.04489 370.83926h33.73467v2.17643h-33.73467z"/><path d="m82.70435 468.77863h33.73467v2.17643h-33.73467z"/><path d="m178.46729 468.77863h33.73467v2.17643h-33.73467z"/><path d="m274.23022 468.77863h33.73467v2.17643h-33.73467z"/><path d="m369.99316 468.77863h33.73467v2.17643h-33.73467z"/><path d="m465.75609 468.77863h33.73467v2.17643h-33.73467z"/><path d="m561.51903 468.77863h33.73467v2.17643h-33.73467z"/><path d="m657.28196 468.77863h33.73467v2.17643h-33.73467z"/><path d="m753.04489 468.77863h33.73467v2.17643h-33.73467z"/></g><g transform="translate(-156.82437 -204.18443)"><path d="m732.01016 298.87947a28.99191 28.99191 0 0 0 -6.04507-5.70351h12.62379a21.11412 21.11412 0 0 0 -6.57872 5.70351z" fill="none"/><path d="m690.74325 293.176h2.17616c-.46752.32845-.93648.65539-1.38307 1.01036-.25489-.34455-.52702-.675-.79309-1.01036z" fill="none"/><path d="m748.69208 290.55856a20.83292 20.83292 0 0 1 10.12924 2.6174h-20.23244a20.74188 20.74188 0 0 1 10.1032-2.6174z" fill="#e6e6e6"/><path d="m709.43111 287.94117a28.623 28.623 0 0 1 16.534 5.23479h-33.0457a28.61637 28.61637 0 0 1 16.5117-5.23479z" fill="#e6e6e6"/><path d="m487.03606 254.80744a53.65615 53.65615 0 0 1 105.27431-11.3126c.65-.02332 1.29951-.04944 1.95522-.04944a53.66909 53.66909 0 0 1 51.48218 38.53833 37.92036 37.92036 0 0 1 44.99548 11.19227h-167.372a36.29323 36.29323 0 0 1 -36.37313-37.57718q.0161-.39512.03794-.79138z" fill="#e6e6e6"/><path d="m777.58705 338.05522a28.99214 28.99214 0 0 1 6.04507-5.70351h-12.62379a21.11388 21.11388 0 0 1 6.57872 5.70351z" fill="none"/><path d="m818.854 332.35171h-2.17616c.46752.32845.93647.65539 1.38306 1.01036.25486-.34451.527-.67496.7931-1.01036z" fill="none"/><path d="m760.90514 329.73431a20.83286 20.83286 0 0 0 -10.12924 2.6174h20.23243a20.74171 20.74171 0 0 0 -10.10319-2.6174z" fill="#e6e6e6"/><path d="m800.16611 327.11691a28.62293 28.62293 0 0 0 -16.534 5.2348h33.04569a28.61635 28.61635 0 0 0 -16.51169-5.2348z" fill="#e6e6e6"/><path d="m1022.56115 293.98318a53.65615 53.65615 0 0 0 -105.27431-11.31259c-.65-.02333-1.29951-.04945-1.95522-.04945a53.66909 53.66909 0 0 0 -51.48218 38.53833 37.92038 37.92038 0 0 0 -44.99544 11.19224h167.372a36.29324 36.29324 0 0 0 36.37314-37.57719q-.01614-.39507-.03799-.79134z" fill="#e6e6e6"/></g><path d="m910.97675 662.3144h19.45264v3.08772h-19.45264z" fill="#3f3d56" transform="matrix(-.99999986 -.00053459 .00053459 -.99999986 1684.22678 1124.02413)"/><path d="m770.33154 663.006 4.01354.92846 152.53335.08154 1.37161-3.19572a32.257 32.257 0 0 0 2.37148-17.44193c-.65694-4.4136-2.30315-8.79914-6.04213-10.70394l-6.76889-45.08441-84.38886-.151-32.64974 26.33408s-15.40137-.27686-23.7685 10.13972a24.44959 24.44959 0 0 0 -5.1143 13.46591l-.33022 5.41878z" fill="#adb5bd" transform="translate(-156.82437 -204.18443)"/><circle cx="647.00933" cy="458.0675" fill="#3f3d56" r="18.83509"/><circle cx="647.00933" cy="458.0675" fill="#ccc" r="9.91321"/><circle cx="739.94969" cy="458.11718" fill="#3f3d56" r="18.83509"/><circle cx="739.94969" cy="458.11718" fill="#ccc" r="9.91321"/><path d="m656.92 406.511 45.563.019h5.562l9.39.007v-.685l.007-8.258.007-9.272h-6.248l-5.562-.006-9.852-.007h-5.562l-11.374-.007z" fill="#fff"/><path d="m724.849 406.544 24.08.013.006-4.725v-8.258l.007-5.232h-3.526l-5.562-.007-14.998-.006z" fill="#fff"/><path d="m871.16473 624.30978h3.08772v5.86667h-3.08772z" fill="#3f3d56" transform="matrix(-.99999986 -.00053459 .00053459 -.99999986 1588.2574 1050.7682)"/><path d="m821.61203 614.55698h3.08772v5.86667h-3.08772z" fill="#3f3d56" transform="matrix(-.00053459 .99999986 -.99999986 -.00053459 1284.26173 -409.51982)"/><path d="m817.13838 604.397h.33966a6.45333 6.45333 0 0 1 6.45333 6.45333 6.45333 6.45333 0 0 1 -6.45333 6.45333h-.33966a0 0 0 0 1 0 0v-12.90666a0 0 0 0 1 0 0z" fill="#3f3d56" transform="matrix(-.99999986 -.00053459 .00053459 -.99999986 1483.91874 1017.9547)"/><path d="m771.55888 642.79749a9.97473 9.97473 0 0 0 5.44452-18.88469 24.44959 24.44959 0 0 0 -5.1143 13.46591z" fill="#3f3d56" transform="translate(-156.82437 -204.18443)"/><path d="m705.639 388.316 11.796 17.536.007-8.258-6.241-9.272z" fill="#f2f2f2"/><path d="m739.854 388.335 9.081 13.497v-8.258l-3.519-5.232z" fill="#f2f2f2"/><path d="m690.225 388.309 12.258 18.221h5.562l-12.258-18.221z" fill="#f2f2f2"/><circle cx="50.0579" cy="260.92953" fill="#3f3d56" r="50.0579"/><path d="m207.09056 480.18425-25.05073-25.05073a4.35315 4.35315 0 0 1 6.15628-6.15628l18.47789 18.47787 58.96394-67.23927a4.35271 4.35271 0 0 1 6.54523 5.7397z" fill="#adb5bd" transform="translate(-156.82437 -204.18443)"/></svg>