<svg height="766.35644" viewBox="0 0 1075.02997 766.35644" width="1075.02997" xmlns="http://www.w3.org/2000/svg"><ellipse cx="952.02997" cy="736.35644" fill="#3f3d56" rx="123" ry="30"/><path d="m583.82114 169.71864v397.00929a17.839 17.839 0 0 1 -17.83862 17.83074h-161.17752a17.80758 17.80758 0 0 1 -17.83857-17.83074v-397.00929a17.83785 17.83785 0 0 1 17.83857-17.83864h24.12347v3.09517a14.68842 14.68842 0 0 0 14.68831 14.68831h81.971a14.68838 14.68838 0 0 0 14.68822-14.68829v-3.09519h25.70651a17.83282 17.83282 0 0 1 17.83863 17.83864z" fill="#304cb2" transform="translate(-62.48502 -66.82178)"/><path d="m331.56173 151.41214h182.71769v88.99612h-182.71769z" fill="#3f3d56"/><path d="m467.61316 279.34269c4.78308 17.68113 21.16621 28.6315 21.16621 28.6315s8.62822-17.71641 3.84514-35.39754-21.1662-28.6315-21.1662-28.6315-8.62822 17.71641-3.84515 35.39754z" fill="#fff" transform="translate(-62.48502 -66.82178)"/><path d="m474.64156 275.54282c13.12484 12.7765 14.72794 32.417 14.72794 32.417s-19.67646-1.07435-32.8013-13.85085-14.72794-32.41697-14.72794-32.41697 19.67646 1.07432 32.8013 13.85082z" fill="#304cb2" transform="translate(-62.48502 -66.82178)"/><path d="m511.12584 279.34269c-4.78308 17.68113-21.1662 28.6315-21.1662 28.6315s-8.62822-17.71641-3.84515-35.39754 21.16621-28.6315 21.16621-28.6315 8.62822 17.71641 3.84514 35.39754z" fill="#fff" transform="translate(-62.48502 -66.82178)"/><path d="m504.09744 275.54282c-13.12483 12.7765-14.72794 32.417-14.72794 32.417s19.67647-1.07435 32.8013-13.85085 14.72794-32.41697 14.72794-32.41697-19.67646 1.07432-32.8013 13.85082z" fill="#304cb2" transform="translate(-62.48502 -66.82178)"/><path d="m347.90393 290.24551h150.03328v8.2358h-150.03328z" fill="#f0f0f0"/><path d="m347.90393 303.51429h150.03328v8.2358h-150.03328z" fill="#f0f0f0"/><path d="m347.90393 316.78308h150.03328v8.2358h-150.03328z" fill="#f0f0f0"/><path d="m347.90393 330.05186h150.03328v8.2358h-150.03328z" fill="#f0f0f0"/><path d="m464.91681 452.21328h40.95397v40.95397h-40.95397z" fill="#f0f0f0" transform="matrix(.81542059 .57886895 -.57886895 .81542059 300.7344 -260.55228)"/><path d="m489.93637 509.85093a9.45092 9.45092 0 1 1 9.45092-9.45093 9.46174 9.46174 0 0 1 -9.45092 9.45093zm0-17.32668a7.87577 7.87577 0 1 0 7.87577 7.87575 7.88454 7.88454 0 0 0 -7.87577-7.87575z" fill="#3f3d56" transform="translate(-62.48502 -66.82178)"/><path d="m259.33971 84.6604v397.0093a17.83895 17.83895 0 0 1 -17.83862 17.83073h-161.1775a17.80758 17.80758 0 0 1 -17.83859-17.83073v-397.0093a17.83785 17.83785 0 0 1 17.83859-17.83862h24.12346v3.09522a14.68844 14.68844 0 0 0 14.68832 14.68832h81.971a14.68839 14.68839 0 0 0 14.68822-14.68832v-3.09522h25.7065a17.83282 17.83282 0 0 1 17.83862 17.83862z" fill="#f2f2f2" transform="translate(-62.48502 -66.82178)"/><g fill="#3f3d56"><path d="m238.89422 283.60275h-157.51522v-140.97616h157.51522zm-155.9401-1.57516h154.36494v-137.82584h-154.36494z" transform="translate(-62.48502 -66.82178)"/><path d="m159.34895 108.53222h1.57527v209.1649h-1.57527z" transform="matrix(.66646455 -.74553672 .74553672 .66646455 -167.9586 123.64721)"/><path d="m55.55414 212.32703h209.1649v1.57527h-209.1649z" transform="matrix(.74554766 -.66645232 .66645232 .74554766 -163.76865 94.12913)"/><path d="m19.68152 257.73493h155.9401v1.57515h-155.9401z"/><path d="m19.68152 271.91131h155.9401v1.57515h-155.9401z"/><path d="m19.68152 286.08768h155.9401v1.57515h-155.9401z"/><path d="m19.68152 300.26405h77.97005v1.57515h-77.97005z"/><path d="m19.68152 314.44042h77.97005v1.57515h-77.97005z"/></g><path d="m907.515 84.6604v397.0093a17.83895 17.83895 0 0 1 -17.83862 17.83073h-161.17752a17.80758 17.80758 0 0 1 -17.83857-17.83073v-397.0093a17.83785 17.83785 0 0 1 17.83857-17.83862h24.12346v3.09522a14.68844 14.68844 0 0 0 14.68832 14.68832h81.971a14.68839 14.68839 0 0 0 14.68822-14.68832v-3.09522h25.7065a17.83282 17.83282 0 0 1 17.83864 17.83862z" fill="#f2f2f2" transform="translate(-62.48502 -66.82178)"/><path d="m669.43195 203.39217h155.9401v1.57515h-155.9401z" fill="#3f3d56"/><path d="m669.43195 244.34614h155.9401v1.57515h-155.9401z" fill="#3f3d56"/><path d="m669.43195 285.3001h155.9401v1.57515h-155.9401z" fill="#3f3d56"/><circle cx="743.24177" cy="117.99669" fill="#304cb2" r="25.60213"/><path d="m785.99323 196.30398h11.02607v25.20244h-11.02607z" fill="#304cb2"/><path d="m689.12135 236.47037h11.02607v25.20244h-11.02607z" fill="#304cb2"/><path d="m753.70261 276.63676h11.02607v25.20244h-11.02607z" fill="#304cb2"/><g fill="#3f3d56"><path d="m809.0879 213.50846a31.50305 31.50305 0 1 1 31.50305-31.503 31.5389 31.5389 0 0 1 -31.50305 31.503zm0-61.431a29.9279 29.9279 0 1 0 29.9279 29.9279 29.96194 29.96194 0 0 0 -29.9279-29.92785z" transform="translate(-62.48502 -66.82178)"/><path d="m310.44646 264.36769h1.99985v99.25679h-1.99985z" transform="matrix(.77111177 -.6366998 .6366998 .77111177 -191.11985 203.34606)"/><path d="m350.73 361.57278c-5.24124-3.03781-12.50073-6.18243-18.21878-7.12585l9.52512-3.40314 5.14266-8.70779c-.15568 5.79324 1.5584 13.51663 3.551 19.23678z" transform="translate(-62.48502 -66.82178)"/><path d="m608.16085 312.99579h99.25711v2.0006h-99.25711z" transform="matrix(.63652819 -.77125343 .77125343 .63652819 -65.56767 554.6293)"/><path d="m618.506 361.57278c1.99115-5.72137 3.70526-13.44476 3.54962-19.238l5.14411 8.709 9.52356 3.40189c-5.71807.94346-12.97759 4.08805-18.21729 7.12711z" transform="translate(-62.48502 -66.82178)"/></g><path d="m1079.015 444.67822s0 146-23 199l-53 119s-34-2-36-16l40-124 24-73 6-114z" fill="#2f2e41" transform="translate(-62.48502 -66.82178)"/><path d="m1046.015 448.67822-9 61 6 134 3 74s12 33 8 36l-8 6s-32-4-33-6-20-153-20-153-39-122-37-124 11-32 11-32z" fill="#2f2e41" transform="translate(-62.48502 -66.82178)"/><path d="m1053.015 749.67822 4 23s11 47 0 47-31-13-32-21 2-44 2-44z" fill="#2f2e41" transform="translate(-62.48502 -66.82178)"/><path d="m1002.015 757.67822s8 16 13 18 27.77 15.08269 14.385 23.54135-27.385.45865-27.385.45865l-46-25s6-25 15-27 31 10 31 10z" fill="#2f2e41" transform="translate(-62.48502 -66.82178)"/><circle cx="929.52997" cy="120.85644" fill="#ffb8b8" r="36"/><g transform="translate(-62.48502 -66.82178)"><path d="m1022.015 190.67822s7 46 14 52-15 27-25 26-21-23-21-23 3-29-2-37 34-18 34-18z" fill="#ffb8b8"/><path d="m1014.015 249.67822 16.985-15.67822a64.29232 64.29232 0 0 0 20.015 16.67822c13 7-25 79-25 79l-61-76s19.40212-12.89668 25.70106-17.94834z" fill="#3f3d56"/><path d="m1024.015 310.67822s26.80043-46.71919 23.90022-61.85959c0 0 39.09978 9.85959 41.09978 22.85959s-19 60-19 60 17 119 7 120-110 2-112-3 2-20-4-25-13-2-10-10 16-18 12-24-5-4-4-8-2-57-2-57-21-58-16-62 31.22757-13.85959 31.22757-13.85959z" fill="#3f3d56"/><path d="m1104.015 466.67822s-3 40-20 38 3-45 3-45z" fill="#ffb8b8"/><path d="m955.015 465.67822s6 24 13 22v-28l-3-5z" fill="#ffb8b8"/><path d="m1021.37685 192.857a6.22218 6.22218 0 0 0 -1.02654-2.895 4.69433 4.69433 0 0 0 -2.18848-1.38668 9.8326 9.8326 0 0 0 -11.71709 5.02134c-.9232 2.01357-1.36667 4.60676-3.392 5.50383-2.35413 1.0427-4.96552-1.177-5.89034-3.57987s-.94951-5.12616-2.18261-7.38639c-1.46216-2.68008-4.41787-4.25968-7.40447-4.8929-2.47494-.52474-5.50409-.79974-6.6204-3.0701a6.07775 6.07775 0 0 1 -.45225-2.74409 28.964 28.964 0 0 1 1.78724-9.79156c-9.79684-1.95655-18.51144 7.60415-28.50055 7.75843a7.52545 7.52545 0 0 1 -3.67552-.72036c-2.21649-1.18395-3.18-3.80837-3.84778-6.23091q-1.06388-3.85965-1.75106-7.81015l3.19927 1.46741a12.55094 12.55094 0 0 1 -1.42539-5.51247 13.19157 13.19157 0 0 1 4.918.41515l.23286-5.73423c2.47176 3.13416 7.40026 2.03252 11.11882.58172 7.17693-2.80009 14.31693-5.83072 21.84937-7.44661s15.6064-1.73478 22.729 1.20071c7.48528 3.08495 13.25637 9.22 18.3397 15.5213 2.81777 3.49289 5.54177 7.16384 7.06342 11.38577a27.59523 27.59523 0 0 1 -.06014 17.60083c-1.63958 5.134-4.68808 11.34414-8.79152 14.9018-1.43528-3.63397-1.63011-8.2695-2.31154-12.15697z" fill="#2f2e41"/><g fill="#3f3d56"><path d="m953.015 259.67822-13 3s-15 16-16 31-1 90-1 90l19 62s-2 14 0 14 3-3 3 1-5 0 0 4l10 8 16.71292-22.158s1.28708-8.842-1.71292-10.842-3-3-2-6 3-4 2-6-4-5-4-7 0-4-1-5-8-25-8-25l4-78z"/><path d="m1079.015 264.67822 10 5s16 48 16 90 3 70 3 70 5 12 3 12-4 0-2 3 3 2 2 5-2-2-1 3 0 7-2 7-2 13-2 13l-24-9s4-5 3-7a9.965 9.965 0 0 1 -1-4s5-1 0-3-3-2-2-8 4-5 1-6-21-94-21-94z"/></g></g><circle cx="951.51498" cy="183.17822" fill="#2f2e41" r="3"/><circle cx="951.51498" cy="193.17822" fill="#2f2e41" r="3"/></svg>