<svg height="680.93" viewBox="0 0 761.717 680.93" width="761.717" xmlns="http://www.w3.org/2000/svg"><path d="m232.953 40.713h340.063v92.408" fill="none" stroke="#428bca" stroke-dasharray="12" stroke-miterlimit="10" stroke-width="2" transform="translate(76.764 133.881)"/><path d="m573.016 133.121h-340.063v-92.408" fill="none" stroke="#428bca" stroke-dasharray="12" stroke-miterlimit="10" stroke-width="2" transform="translate(-45.299 508.882)"/><path d="m11.029 0h268.214a11.025 11.025 0 0 1 11.025 11.025v501.88a11.025 11.025 0 0 1 -11.025 11.025h-268.214a11.025 11.025 0 0 1 -11.029-11.023v-501.88a11.025 11.025 0 0 1 11.029-11.027z" fill="#3e3c55" transform="translate(-.004 -.002)"/><path d="m497.548 104.162a23.26 23.26 0 0 1 -22.924 19.783h-99.1a23.26 23.26 0 0 1 -22.924-19.786h-52.49a10.9 10.9 0 0 0 -10.9 10.9l-.01 470.104a10.9 10.9 0 0 0 10.9 10.9l250.726.006a10.9 10.9 0 0 0 10.9-10.9l.011-470.108a10.9 10.9 0 0 0 -10.9-10.9z" fill="#e6e6e6" transform="translate(-281.29 -82.725)"/><rect fill="#dbdbdb" height="4.088" rx="1.42" width="65.404" x="111.802" y="22.937"/><circle cx="191.105" cy="24.573" fill="#dbdbdb" r="2.453"/><rect fill="#fff" height="424" rx="16" width="243" x="23.717" y="57"/><g fill="#428bca"><path d="m88.028 144.048h28.309v6.815h-28.309z"/><path d="m204.411 144.048h9.961v6.815h-9.961z"/><path d="m224.332 144.048h9.961v6.815h-9.961z"/><path d="m126.298 144.048h67.628v6.815h-67.628z"/><path d="m52.379 188.085h28.309v6.815h-28.309z"/><path d="m168.762 188.085h9.961v6.815h-9.961z"/><path d="m188.683 188.085h9.961v6.815h-9.961z"/><path d="m90.649 188.085h67.628v6.815h-67.628z"/><path d="m169.286 159.251h28.309v6.815h-28.309z"/><path d="m207.556 159.251h28.309v6.815h-28.309z"/><path d="m52.379 159.251h9.961v6.815h-9.961z"/><path d="m72.3 159.251h9.961v6.815h-9.961z"/><path d="m92.222 159.251h67.628v6.815h-67.628z"/><path d="m110.571 173.93h28.309v6.815h-28.309z"/><path d="m72.3 173.93h28.309v6.815h-28.309z"/><path d="m52.379 173.93h9.961v6.815h-9.961z"/><path d="m225.905 173.93h9.961v6.815h-9.961z"/><path d="m148.316 173.93h67.628v6.815h-67.628z"/><rect height="43" rx="12" width="138" x="75.717" y="269"/></g><rect fill="#e6e6e6" height="43" rx="12" width="138" x="75.717" y="345"/><g transform="translate(-216.829 -3)"><path d="m8.186 0h199.056a8.182 8.182 0 0 1 8.182 8.182v372.474a8.182 8.182 0 0 1 -8.182 8.182h-199.056a8.182 8.182 0 0 1 -8.186-8.182v-372.472a8.182 8.182 0 0 1 8.186-8.184z" fill="#3e3c55" transform="translate(763.123 295.092)"/><path d="m443.827 104.161a17.262 17.262 0 0 1 -17.013 14.682h-73.546a17.262 17.262 0 0 1 -17.013-14.683h-38.955a8.087 8.087 0 0 0 -8.087 8.087l-.013 348.89a8.087 8.087 0 0 0 8.087 8.087h186.077a8.087 8.087 0 0 0 8.087-8.087l.008-348.892a8.087 8.087 0 0 0 -8.087-8.087z" fill="#e6e6e6" transform="translate(479.796 206.842)"/><rect fill="#dbdbdb" height="3.034" rx="1.42" width="48.54" x="846.101" y="312.117"/><circle cx="904.955" cy="313.331" fill="#dbdbdb" r="1.82"/><g fill="#fff"><g stroke="#3e3c55"><rect height="315" rx="16" stroke="none" width="180" x="781" y="336"/><rect fill="none" height="314" rx="15.5" width="179" x="781.5" y="336.5"/></g><g stroke-width="2"><g stroke="#707070"><path d="m802 402h136v38h-136z" stroke="none"/><path d="m803 403h134v36h-134z" fill="none"/></g><g stroke="#3e3c55"><path d="m819 495h103v32h-103z" stroke="none"/><path d="m820 496h101v30h-101z" fill="none"/><path d="m819 544h103v32h-103z" stroke="none"/><path d="m820 545h101v30h-101z" fill="none"/></g></g></g></g></svg>